<svg width="155" height="29" viewBox="0 0 155 29" fill="none" xmlns="http://www.w3.org/2000/svg">
<g filter="url(#filter0_d_58_29)">
<mask id="path-1-outside-1_58_29" maskUnits="userSpaceOnUse" x="4" y="0" width="147" height="21" fill="black">
<rect fill="white" x="4" width="147" height="21"/>
<path d="M5 18.5271C5.52948 18.5108 5.90653 18.4044 6.13115 18.208C6.37182 17.9953 6.52425 17.6925 6.58843 17.2997C6.65261 16.907 6.6847 16.4078 6.6847 15.8023V5.59044C6.6847 4.83764 6.70876 4.1994 6.7569 3.67571C6.48414 3.69208 6.18731 3.70844 5.86642 3.72481C5.54552 3.74117 5.25672 3.75754 5 3.7739V2.42377C6.89328 2.40741 8.85074 2.39104 10.8724 2.37468C13.1186 2.37468 14.8595 2.79199 16.0949 3.62661C17.3464 4.44488 17.9882 5.705 18.0203 7.40698C18.0363 8.04522 17.924 8.70801 17.6834 9.39535C17.4427 10.0663 17.0335 10.6964 16.4559 11.2855C15.8783 11.8583 15.0921 12.3247 14.0974 12.6848C13.1026 13.0448 11.8671 13.2248 10.391 13.2248C10.2306 13.2412 10.0461 13.2494 9.83749 13.2494C9.64495 13.233 9.44439 13.2248 9.23581 13.2248V16.3178C9.23581 17.2015 9.21174 17.8807 9.16361 18.3553C9.50055 18.3226 9.86958 18.298 10.2707 18.2817C10.6718 18.2653 11.0248 18.2489 11.3296 18.2326V19.6072H5V18.5271ZM9.23581 11.9238C9.49252 11.9565 9.72517 11.9811 9.93375 11.9974C10.1423 11.9974 10.383 11.9974 10.6558 11.9974C12.0035 11.9974 13.1026 11.621 13.953 10.8682C14.8033 10.0991 15.2285 9.02713 15.2285 7.65245C15.2285 6.58872 15.0199 5.76227 14.6028 5.17313C14.2017 4.58398 13.6642 4.17485 12.9903 3.94574C12.3324 3.70026 11.6104 3.57752 10.8242 3.57752C10.0862 3.57752 9.63693 3.79845 9.47648 4.24031C9.31603 4.6658 9.23581 5.31223 9.23581 6.17959V11.9238Z"/>
<path d="M25.1073 20C23.9842 20 22.9734 19.7382 22.0749 19.2145C21.1924 18.6744 20.4944 17.9216 19.981 16.9561C19.4676 15.9742 19.2109 14.8204 19.2109 13.4948C19.2109 12.3493 19.4596 11.2773 19.9569 10.2791C20.4704 9.28079 21.1763 8.4789 22.0749 7.87339C22.9894 7.25151 24.0564 6.94057 25.2758 6.94057C26.1582 6.94057 26.9845 7.13695 27.7547 7.52972C28.5248 7.90612 29.1426 8.51163 29.6079 9.34625C30.0892 10.1645 30.3299 11.2446 30.3299 12.5866L22.0508 12.7338C22.0508 13.863 22.1711 14.8613 22.4118 15.7287C22.6685 16.5797 23.0776 17.2425 23.6392 17.7171C24.2008 18.1916 24.9308 18.4289 25.8293 18.4289C26.4872 18.4289 27.1851 18.2571 27.9232 17.9134C28.6612 17.5534 29.2629 17.0706 29.7282 16.4651L30.4743 17.1279C29.9769 17.8643 29.4153 18.4453 28.7896 18.8708C28.1799 19.2799 27.5461 19.5663 26.8883 19.73C26.2465 19.91 25.6528 20 25.1073 20ZM22.1471 11.4574H27.7066C27.7066 10.5409 27.514 9.76357 27.1289 9.12532C26.7439 8.47072 26.1422 8.14341 25.3239 8.14341C24.4575 8.14341 23.7515 8.42162 23.206 8.97804C22.6765 9.51809 22.3235 10.3445 22.1471 11.4574Z"/>
<path d="M32.3519 18.5762C32.8332 18.5762 33.1702 18.4617 33.3627 18.2326C33.5552 18.0034 33.6675 17.6843 33.6996 17.2752C33.7478 16.8661 33.7718 16.3915 33.7718 15.8514V10.7455C33.7718 10.4836 33.7718 10.2054 33.7718 9.91085C33.7879 9.61628 33.82 9.31352 33.8681 9.00258C33.5953 9.00258 33.3065 9.01077 33.0017 9.02713C32.6968 9.0435 32.4161 9.05986 32.1593 9.07623V7.77519H32.9776C33.6515 7.77519 34.1569 7.70155 34.4938 7.55426C34.8468 7.40698 35.1116 7.25151 35.2881 7.08785H36.1545C36.1866 7.31697 36.2106 7.63609 36.2267 8.04522C36.2427 8.45435 36.2588 8.91258 36.2748 9.4199C36.7241 8.74892 37.2856 8.16796 37.9595 7.677C38.6334 7.18605 39.3554 6.94057 40.1255 6.94057C40.6229 6.94057 41.0481 7.07967 41.4011 7.35788C41.7701 7.61972 41.9546 8.0534 41.9546 8.65891C41.9546 8.92076 41.8504 9.21533 41.6418 9.54263C41.4332 9.86994 41.0802 10.0254 40.5828 10.009C40.2459 9.99268 39.9491 9.86176 39.6923 9.61628C39.4517 9.3708 39.3394 9.03531 39.3554 8.60982C38.9703 8.60982 38.5853 8.73256 38.2002 8.97804C37.8151 9.20715 37.4541 9.51809 37.1172 9.91085C36.7802 10.3036 36.5075 10.7291 36.2989 11.1873V16.5633C36.2989 16.8579 36.2909 17.1606 36.2748 17.4716C36.2748 17.7661 36.2507 18.0689 36.2026 18.3798C36.4593 18.3635 36.7241 18.3553 36.9968 18.3553C37.2696 18.3389 37.5183 18.3226 37.7429 18.3062V19.6072H32.3519V18.5762Z"/>
<path d="M44.6795 6.74419C44.6795 4.87855 45.0325 3.45478 45.7384 2.47287C46.4605 1.49096 47.5916 1 49.1319 1C49.8539 1 50.4877 1.17183 51.0332 1.5155C51.5948 1.85917 51.8756 2.32558 51.8756 2.91473C51.8756 3.27476 51.7713 3.57752 51.5627 3.823C51.3701 4.06848 51.0894 4.1994 50.7203 4.21576C50.3032 4.21576 49.9983 4.09302 49.8058 3.84755C49.6293 3.5857 49.541 3.32386 49.541 3.06202C49.541 2.98019 49.541 2.89018 49.541 2.79199C49.5571 2.6938 49.5892 2.59561 49.6373 2.49742C49.525 2.36649 49.3806 2.27649 49.2041 2.22739C49.0437 2.17829 48.8912 2.15375 48.7468 2.15375C48.3297 2.15375 48.0088 2.27649 47.7841 2.52196C47.5595 2.76744 47.3991 3.07838 47.3028 3.45478C47.2065 3.83118 47.1584 4.21576 47.1584 4.60853V7.33333H50.239V8.60982L47.1825 8.68346L47.2065 16.5388C47.2065 16.8333 47.1985 17.1361 47.1825 17.447C47.1664 17.758 47.1424 18.0689 47.1103 18.3798C47.367 18.3635 47.6317 18.3553 47.9045 18.3553C48.1933 18.3389 48.45 18.3226 48.6746 18.3062V19.6072H43.2595V18.5762C43.7409 18.5762 44.0778 18.4617 44.2704 18.2326C44.4629 18.0034 44.5752 17.6843 44.6073 17.2752C44.6554 16.8661 44.6795 16.3915 44.6795 15.8514V8.70801L42.7782 8.75711V7.33333H44.6795V6.74419Z"/>
<path d="M57.3574 20C56.2182 20 55.1914 19.7382 54.2768 19.2145C53.3623 18.6908 52.6322 17.9625 52.0867 17.0297C51.5572 16.0805 51.2925 14.9922 51.2925 13.7649C51.2925 12.4393 51.5572 11.2692 52.0867 10.2545C52.6322 9.22351 53.3623 8.41344 54.2768 7.82429C55.1914 7.23514 56.2102 6.94057 57.3333 6.94057C58.4725 6.94057 59.4994 7.21059 60.4139 7.75065C61.3285 8.27433 62.0505 9.01077 62.58 9.95995C63.1255 10.8928 63.3982 11.9729 63.3982 13.2003C63.3982 14.5095 63.1335 15.6796 62.604 16.7106C62.0746 17.7252 61.3525 18.5271 60.438 19.1163C59.5395 19.7054 58.5126 20 57.3574 20ZM57.5259 18.7726C58.296 18.7726 58.8977 18.5353 59.3309 18.0607C59.7802 17.5698 60.101 16.9561 60.2936 16.2196C60.4861 15.4668 60.5824 14.6895 60.5824 13.8876C60.5824 13.1839 60.5182 12.4966 60.3899 11.8256C60.2775 11.1382 60.093 10.5164 59.8363 9.95995C59.5796 9.40353 59.2427 8.96167 58.8255 8.63437C58.4083 8.2907 57.9029 8.12705 57.3093 8.14341C56.5391 8.14341 55.9134 8.38071 55.432 8.8553C54.9667 9.32989 54.6298 9.94358 54.4212 10.6964C54.2126 11.4328 54.1083 12.2183 54.1083 13.053C54.1083 14.0185 54.2287 14.935 54.4693 15.8023C54.71 16.6697 55.079 17.3816 55.5764 17.938C56.0899 18.4944 56.7397 18.7726 57.5259 18.7726Z"/>
<path d="M65.3501 18.5762C65.8315 18.5762 66.1684 18.4617 66.3609 18.2326C66.5535 18.0034 66.6658 17.6843 66.6979 17.2752C66.746 16.8661 66.7701 16.3915 66.7701 15.8514V10.7455C66.7701 10.4836 66.7701 10.2054 66.7701 9.91085C66.7861 9.61628 66.8182 9.31352 66.8663 9.00258C66.5936 9.00258 66.3048 9.01077 65.9999 9.02713C65.6951 9.0435 65.4143 9.05986 65.1576 9.07623V7.77519H65.9759C66.6497 7.77519 67.1552 7.70155 67.4921 7.55426C67.8451 7.40698 68.1098 7.25151 68.2863 7.08785H69.1527C69.1848 7.31697 69.2089 7.63609 69.2249 8.04522C69.241 8.45435 69.257 8.91258 69.2731 9.4199C69.7223 8.74892 70.2839 8.16796 70.9577 7.677C71.6316 7.18605 72.3536 6.94057 73.1238 6.94057C73.6212 6.94057 74.0464 7.07967 74.3993 7.35788C74.7684 7.61972 74.9529 8.0534 74.9529 8.65891C74.9529 8.92076 74.8486 9.21533 74.64 9.54263C74.4314 9.86994 74.0785 10.0254 73.5811 10.009C73.2441 9.99268 72.9473 9.86176 72.6906 9.61628C72.4499 9.3708 72.3376 9.03531 72.3536 8.60982C71.9686 8.60982 71.5835 8.73256 71.1984 8.97804C70.8134 9.20715 70.4523 9.51809 70.1154 9.91085C69.7785 10.3036 69.5057 10.7291 69.2971 11.1873V16.5633C69.2971 16.8579 69.2891 17.1606 69.2731 17.4716C69.2731 17.7661 69.249 18.0689 69.2009 18.3798C69.4576 18.3635 69.7223 18.3553 69.9951 18.3553C70.2678 18.3389 70.5165 18.3226 70.7411 18.3062V19.6072H65.3501V18.5762Z"/>
<path d="M76.1615 19.6072V18.5762C76.6429 18.5762 76.9798 18.4617 77.1723 18.2326C77.3649 18.0034 77.4772 17.6843 77.5093 17.2752C77.5574 16.8661 77.5815 16.3915 77.5815 15.8514V10.7455C77.5815 10.4836 77.5815 10.2054 77.5815 9.91085C77.5975 9.61628 77.6296 9.31352 77.6777 9.00258C77.405 9.00258 77.1162 9.01895 76.8113 9.05168C76.5065 9.06804 76.2257 9.07623 75.969 9.07623V7.77519C76.691 7.77519 77.2526 7.74246 77.6537 7.677C78.0708 7.61154 78.3837 7.52972 78.5923 7.43152C78.8169 7.31697 78.9854 7.20241 79.0977 7.08785H79.9641C79.9962 7.25151 80.0122 7.44789 80.0122 7.677C80.0283 7.88975 80.0443 8.11886 80.0604 8.36434C80.5578 7.93885 81.1193 7.59518 81.7451 7.33333C82.3869 7.07149 83.0046 6.94057 83.5982 6.94057C84.3844 6.94057 85.0342 7.08785 85.5477 7.38243C86.0772 7.66064 86.4943 8.06158 86.7992 8.58527C87.3607 8.11068 87.9945 7.71792 88.7005 7.40698C89.4064 7.09604 90.0964 6.94057 90.7702 6.94057C92.134 6.94057 93.1449 7.35788 93.8027 8.19251C94.4766 9.01077 94.7975 10.3854 94.7654 12.3165L94.7413 16.5633C94.7413 16.8579 94.7333 17.1606 94.7172 17.4716C94.7172 17.7661 94.6932 18.0689 94.645 18.3798C94.9018 18.3635 95.1665 18.3553 95.4393 18.3553C95.712 18.3389 95.9607 18.3226 96.1853 18.3062V19.6072H90.8906V18.5762C91.3398 18.5762 91.6527 18.4617 91.8292 18.2326C92.0217 18.0034 92.134 17.6843 92.1661 17.2752C92.2143 16.8661 92.2383 16.3915 92.2383 15.8514V12.3165C92.2223 11.0237 92.0137 10.0745 91.6126 9.46899C91.2115 8.86348 90.6018 8.56072 89.7835 8.56072C89.3182 8.56072 88.8529 8.6671 88.3876 8.87985C87.9383 9.07623 87.5452 9.32989 87.2083 9.64083C87.3688 10.1972 87.449 10.8519 87.449 11.6047C87.4329 12.4393 87.4249 13.2657 87.4249 14.084C87.4249 14.9022 87.4249 15.7287 87.4249 16.5633C87.4249 16.8579 87.4169 17.1606 87.4008 17.4716C87.3848 17.7661 87.3607 18.0689 87.3286 18.3798C87.5693 18.3635 87.826 18.3553 88.0988 18.3553C88.3715 18.3389 88.6202 18.3226 88.8449 18.3062V19.6072H83.502V18.5762C83.9673 18.5762 84.2962 18.4617 84.4887 18.2326C84.6813 18.0034 84.7936 17.6843 84.8257 17.2752C84.8738 16.8661 84.8979 16.3915 84.8979 15.8514V12.292C84.9139 10.9991 84.7294 10.05 84.3443 9.44444C83.9753 8.82257 83.3816 8.51981 82.5634 8.53618C82.0981 8.53618 81.6488 8.64255 81.2156 8.8553C80.7824 9.05168 80.4053 9.30534 80.0844 9.61628C80.0844 9.81266 80.0844 10.0172 80.0844 10.23C80.1005 10.4427 80.1085 10.6718 80.1085 10.9173V16.5633C80.1085 16.8579 80.1005 17.1606 80.0844 17.4716C80.0684 17.7661 80.0443 18.0689 80.0122 18.3798C80.2529 18.3635 80.5016 18.3553 80.7583 18.3553C81.0311 18.3389 81.2798 18.3226 81.5044 18.3062V19.6072H76.1615Z"/>
<path d="M105.002 19.6072C104.97 19.3454 104.945 19.1163 104.929 18.9199C104.913 18.7235 104.889 18.5189 104.857 18.3062C103.75 19.4354 102.515 20 101.151 20C99.9956 20 99.1212 19.7136 98.5275 19.1408C97.9499 18.5517 97.6611 17.8234 97.6611 16.9561C97.6611 16.2033 97.8777 15.5487 98.3109 14.9922C98.7442 14.4358 99.3137 13.9858 100.02 13.6421C100.726 13.2821 101.496 13.0202 102.33 12.8566C103.164 12.6766 103.983 12.5866 104.785 12.5866V11.1382C104.785 10.6146 104.737 10.1318 104.641 9.68992C104.544 9.2317 104.344 8.86348 104.039 8.58527C103.734 8.2907 103.277 8.14341 102.667 8.14341C102.25 8.12705 101.833 8.20887 101.416 8.38889C100.998 8.55254 100.678 8.83075 100.453 9.22351C100.581 9.35444 100.661 9.50991 100.694 9.68992C100.742 9.85357 100.766 10.009 100.766 10.1563C100.766 10.3854 100.67 10.6473 100.477 10.9419C100.284 11.2201 99.9555 11.351 99.4902 11.3346C99.1052 11.3346 98.8083 11.2037 98.5997 10.9419C98.4072 10.6637 98.3109 10.3445 98.3109 9.9845C98.3109 9.39535 98.5195 8.87166 98.9367 8.41344C99.3699 7.95521 99.9475 7.59518 100.67 7.33333C101.408 7.07149 102.242 6.94057 103.172 6.94057C104.552 6.94057 105.579 7.30879 106.253 8.04522C106.943 8.78165 107.288 9.94358 107.288 11.531C107.288 12.4311 107.28 13.2739 107.264 14.0594C107.264 14.8286 107.264 15.6632 107.264 16.5633C107.264 16.8088 107.256 17.087 107.24 17.3979C107.224 17.7089 107.2 18.0362 107.168 18.3798C107.44 18.3635 107.721 18.3471 108.01 18.3307C108.299 18.3144 108.572 18.3062 108.828 18.3062V19.6072H105.002ZM104.785 13.7158C104.095 13.7485 103.397 13.8712 102.691 14.084C102.001 14.2804 101.424 14.5913 100.958 15.0168C100.509 15.4259 100.292 15.966 100.309 16.637C100.341 17.1934 100.525 17.6025 100.862 17.8643C101.199 18.1262 101.584 18.2571 102.017 18.2571C102.579 18.2571 103.076 18.1507 103.509 17.938C103.943 17.7089 104.368 17.3979 104.785 17.0052C104.769 16.8252 104.761 16.6451 104.761 16.4651C104.761 16.2687 104.761 16.0642 104.761 15.8514C104.761 15.7041 104.761 15.4341 104.761 15.0413C104.777 14.6486 104.785 14.2067 104.785 13.7158Z"/>
<path d="M110.382 19.6072V18.5762C110.863 18.5762 111.2 18.4617 111.393 18.2326C111.585 18.0034 111.698 17.6843 111.73 17.2752C111.778 16.8661 111.802 16.3915 111.802 15.8514L111.826 10.7455C111.826 10.4836 111.826 10.2054 111.826 9.91085C111.842 9.61628 111.874 9.31352 111.922 9.00258C111.633 9.00258 111.337 9.01895 111.032 9.05168C110.727 9.06804 110.454 9.07623 110.213 9.07623V7.77519C110.935 7.77519 111.497 7.74246 111.898 7.677C112.315 7.61154 112.628 7.52972 112.837 7.43152C113.061 7.31697 113.23 7.20241 113.342 7.08785H114.209C114.241 7.31697 114.257 7.52972 114.257 7.7261C114.257 7.90612 114.273 8.15978 114.305 8.48708C114.818 8.06158 115.42 7.70155 116.11 7.40698C116.8 7.09604 117.458 6.94057 118.083 6.94057C119.511 6.94057 120.538 7.38243 121.164 8.26615C121.806 9.14987 122.127 10.5327 122.127 12.4147V16.5633C122.127 16.8579 122.119 17.1606 122.103 17.4716C122.087 17.7661 122.062 18.0689 122.03 18.3798C122.287 18.3635 122.544 18.3553 122.801 18.3553C123.073 18.3389 123.322 18.3226 123.547 18.3062V19.6072H118.18V18.5762C118.661 18.5762 118.998 18.4617 119.19 18.2326C119.383 18.0034 119.495 17.6843 119.527 17.2752C119.576 16.8661 119.6 16.3915 119.6 15.8514V12.4147C119.584 11.1219 119.383 10.1481 118.998 9.49354C118.613 8.83893 117.979 8.51981 117.097 8.53618C116.583 8.53618 116.07 8.6671 115.556 8.92894C115.059 9.19078 114.65 9.5099 114.329 9.8863C114.329 10.0663 114.329 10.2545 114.329 10.4509C114.329 10.6309 114.329 10.8109 114.329 10.991V16.5633C114.329 16.8579 114.321 17.1606 114.305 17.4716C114.289 17.7661 114.265 18.0689 114.233 18.3798C114.473 18.3635 114.73 18.3553 115.003 18.3553C115.276 18.3389 115.524 18.3226 115.749 18.3062V19.6072H110.382Z"/>
<path d="M131.036 20C129.961 20 128.974 19.7545 128.076 19.2636C127.177 18.7562 126.455 18.0362 125.91 17.1034C125.38 16.1705 125.115 15.0413 125.115 13.7158C125.115 12.832 125.26 11.9892 125.549 11.1873C125.854 10.3691 126.287 9.64083 126.848 9.00258C127.41 8.36434 128.068 7.8652 128.822 7.50517C129.592 7.12877 130.442 6.94057 131.373 6.94057C132.32 6.94057 133.122 7.08785 133.78 7.38243C134.454 7.677 134.975 8.06158 135.344 8.53618C135.713 9.01077 135.898 9.52627 135.898 10.0827C135.898 10.4755 135.785 10.8191 135.561 11.1137C135.336 11.4083 135.015 11.5556 134.598 11.5556C134.117 11.5719 133.78 11.4328 133.587 11.1382C133.411 10.8273 133.322 10.5409 133.322 10.2791C133.322 10.1318 133.346 9.96813 133.395 9.78811C133.443 9.6081 133.531 9.43626 133.659 9.27261C133.531 8.92894 133.322 8.67528 133.034 8.51163C132.745 8.34798 132.448 8.2416 132.143 8.19251C131.838 8.14341 131.582 8.11886 131.373 8.11886C130.394 8.13523 129.568 8.56891 128.894 9.4199C128.236 10.2545 127.907 11.4655 127.907 13.053C127.907 14.0676 128.052 14.9759 128.34 15.7778C128.645 16.5797 129.079 17.2179 129.64 17.6925C130.218 18.1671 130.916 18.4126 131.734 18.4289C132.456 18.4289 133.154 18.2407 133.828 17.8643C134.502 17.4716 135.047 16.9806 135.464 16.3915L136.234 17.0788C135.529 18.1589 134.694 18.9199 133.731 19.3618C132.785 19.7873 131.886 20 131.036 20Z"/>
<path d="M143.633 20C142.51 20 141.499 19.7382 140.601 19.2145C139.718 18.6744 139.02 17.9216 138.507 16.9561C137.993 15.9742 137.737 14.8204 137.737 13.4948C137.737 12.3493 137.985 11.2773 138.483 10.2791C138.996 9.28079 139.702 8.4789 140.601 7.87339C141.515 7.25151 142.582 6.94057 143.802 6.94057C144.684 6.94057 145.51 7.13695 146.28 7.52972C147.051 7.90612 147.668 8.51163 148.134 9.34625C148.615 10.1645 148.856 11.2446 148.856 12.5866L140.577 12.7338C140.577 13.863 140.697 14.8613 140.938 15.7287C141.194 16.5797 141.603 17.2425 142.165 17.7171C142.727 18.1916 143.457 18.4289 144.355 18.4289C145.013 18.4289 145.711 18.2571 146.449 17.9134C147.187 17.5534 147.789 17.0706 148.254 16.4651L149 17.1279C148.503 17.8643 147.941 18.4453 147.315 18.8708C146.706 19.2799 146.072 19.5663 145.414 19.73C144.772 19.91 144.179 20 143.633 20ZM140.673 11.4574H146.232C146.232 10.5409 146.04 9.76357 145.655 9.12532C145.27 8.47072 144.668 8.14341 143.85 8.14341C142.983 8.14341 142.277 8.42162 141.732 8.97804C141.202 9.51809 140.849 10.3445 140.673 11.4574Z"/>
</mask>
<path d="M5 18.5271C5.52948 18.5108 5.90653 18.4044 6.13115 18.208C6.37182 17.9953 6.52425 17.6925 6.58843 17.2997C6.65261 16.907 6.6847 16.4078 6.6847 15.8023V5.59044C6.6847 4.83764 6.70876 4.1994 6.7569 3.67571C6.48414 3.69208 6.18731 3.70844 5.86642 3.72481C5.54552 3.74117 5.25672 3.75754 5 3.7739V2.42377C6.89328 2.40741 8.85074 2.39104 10.8724 2.37468C13.1186 2.37468 14.8595 2.79199 16.0949 3.62661C17.3464 4.44488 17.9882 5.705 18.0203 7.40698C18.0363 8.04522 17.924 8.70801 17.6834 9.39535C17.4427 10.0663 17.0335 10.6964 16.4559 11.2855C15.8783 11.8583 15.0921 12.3247 14.0974 12.6848C13.1026 13.0448 11.8671 13.2248 10.391 13.2248C10.2306 13.2412 10.0461 13.2494 9.83749 13.2494C9.64495 13.233 9.44439 13.2248 9.23581 13.2248V16.3178C9.23581 17.2015 9.21174 17.8807 9.16361 18.3553C9.50055 18.3226 9.86958 18.298 10.2707 18.2817C10.6718 18.2653 11.0248 18.2489 11.3296 18.2326V19.6072H5V18.5271ZM9.23581 11.9238C9.49252 11.9565 9.72517 11.9811 9.93375 11.9974C10.1423 11.9974 10.383 11.9974 10.6558 11.9974C12.0035 11.9974 13.1026 11.621 13.953 10.8682C14.8033 10.0991 15.2285 9.02713 15.2285 7.65245C15.2285 6.58872 15.0199 5.76227 14.6028 5.17313C14.2017 4.58398 13.6642 4.17485 12.9903 3.94574C12.3324 3.70026 11.6104 3.57752 10.8242 3.57752C10.0862 3.57752 9.63693 3.79845 9.47648 4.24031C9.31603 4.6658 9.23581 5.31223 9.23581 6.17959V11.9238Z" fill="#1F1E1C"/>
<path d="M25.1073 20C23.9842 20 22.9734 19.7382 22.0749 19.2145C21.1924 18.6744 20.4944 17.9216 19.981 16.9561C19.4676 15.9742 19.2109 14.8204 19.2109 13.4948C19.2109 12.3493 19.4596 11.2773 19.9569 10.2791C20.4704 9.28079 21.1763 8.4789 22.0749 7.87339C22.9894 7.25151 24.0564 6.94057 25.2758 6.94057C26.1582 6.94057 26.9845 7.13695 27.7547 7.52972C28.5248 7.90612 29.1426 8.51163 29.6079 9.34625C30.0892 10.1645 30.3299 11.2446 30.3299 12.5866L22.0508 12.7338C22.0508 13.863 22.1711 14.8613 22.4118 15.7287C22.6685 16.5797 23.0776 17.2425 23.6392 17.7171C24.2008 18.1916 24.9308 18.4289 25.8293 18.4289C26.4872 18.4289 27.1851 18.2571 27.9232 17.9134C28.6612 17.5534 29.2629 17.0706 29.7282 16.4651L30.4743 17.1279C29.9769 17.8643 29.4153 18.4453 28.7896 18.8708C28.1799 19.2799 27.5461 19.5663 26.8883 19.73C26.2465 19.91 25.6528 20 25.1073 20ZM22.1471 11.4574H27.7066C27.7066 10.5409 27.514 9.76357 27.1289 9.12532C26.7439 8.47072 26.1422 8.14341 25.3239 8.14341C24.4575 8.14341 23.7515 8.42162 23.206 8.97804C22.6765 9.51809 22.3235 10.3445 22.1471 11.4574Z" fill="#1F1E1C"/>
<path d="M32.3519 18.5762C32.8332 18.5762 33.1702 18.4617 33.3627 18.2326C33.5552 18.0034 33.6675 17.6843 33.6996 17.2752C33.7478 16.8661 33.7718 16.3915 33.7718 15.8514V10.7455C33.7718 10.4836 33.7718 10.2054 33.7718 9.91085C33.7879 9.61628 33.82 9.31352 33.8681 9.00258C33.5953 9.00258 33.3065 9.01077 33.0017 9.02713C32.6968 9.0435 32.4161 9.05986 32.1593 9.07623V7.77519H32.9776C33.6515 7.77519 34.1569 7.70155 34.4938 7.55426C34.8468 7.40698 35.1116 7.25151 35.2881 7.08785H36.1545C36.1866 7.31697 36.2106 7.63609 36.2267 8.04522C36.2427 8.45435 36.2588 8.91258 36.2748 9.4199C36.7241 8.74892 37.2856 8.16796 37.9595 7.677C38.6334 7.18605 39.3554 6.94057 40.1255 6.94057C40.6229 6.94057 41.0481 7.07967 41.4011 7.35788C41.7701 7.61972 41.9546 8.0534 41.9546 8.65891C41.9546 8.92076 41.8504 9.21533 41.6418 9.54263C41.4332 9.86994 41.0802 10.0254 40.5828 10.009C40.2459 9.99268 39.9491 9.86176 39.6923 9.61628C39.4517 9.3708 39.3394 9.03531 39.3554 8.60982C38.9703 8.60982 38.5853 8.73256 38.2002 8.97804C37.8151 9.20715 37.4541 9.51809 37.1172 9.91085C36.7802 10.3036 36.5075 10.7291 36.2989 11.1873V16.5633C36.2989 16.8579 36.2909 17.1606 36.2748 17.4716C36.2748 17.7661 36.2507 18.0689 36.2026 18.3798C36.4593 18.3635 36.7241 18.3553 36.9968 18.3553C37.2696 18.3389 37.5183 18.3226 37.7429 18.3062V19.6072H32.3519V18.5762Z" fill="#1F1E1C"/>
<path d="M44.6795 6.74419C44.6795 4.87855 45.0325 3.45478 45.7384 2.47287C46.4605 1.49096 47.5916 1 49.1319 1C49.8539 1 50.4877 1.17183 51.0332 1.5155C51.5948 1.85917 51.8756 2.32558 51.8756 2.91473C51.8756 3.27476 51.7713 3.57752 51.5627 3.823C51.3701 4.06848 51.0894 4.1994 50.7203 4.21576C50.3032 4.21576 49.9983 4.09302 49.8058 3.84755C49.6293 3.5857 49.541 3.32386 49.541 3.06202C49.541 2.98019 49.541 2.89018 49.541 2.79199C49.5571 2.6938 49.5892 2.59561 49.6373 2.49742C49.525 2.36649 49.3806 2.27649 49.2041 2.22739C49.0437 2.17829 48.8912 2.15375 48.7468 2.15375C48.3297 2.15375 48.0088 2.27649 47.7841 2.52196C47.5595 2.76744 47.3991 3.07838 47.3028 3.45478C47.2065 3.83118 47.1584 4.21576 47.1584 4.60853V7.33333H50.239V8.60982L47.1825 8.68346L47.2065 16.5388C47.2065 16.8333 47.1985 17.1361 47.1825 17.447C47.1664 17.758 47.1424 18.0689 47.1103 18.3798C47.367 18.3635 47.6317 18.3553 47.9045 18.3553C48.1933 18.3389 48.45 18.3226 48.6746 18.3062V19.6072H43.2595V18.5762C43.7409 18.5762 44.0778 18.4617 44.2704 18.2326C44.4629 18.0034 44.5752 17.6843 44.6073 17.2752C44.6554 16.8661 44.6795 16.3915 44.6795 15.8514V8.70801L42.7782 8.75711V7.33333H44.6795V6.74419Z" fill="#1F1E1C"/>
<path d="M57.3574 20C56.2182 20 55.1914 19.7382 54.2768 19.2145C53.3623 18.6908 52.6322 17.9625 52.0867 17.0297C51.5572 16.0805 51.2925 14.9922 51.2925 13.7649C51.2925 12.4393 51.5572 11.2692 52.0867 10.2545C52.6322 9.22351 53.3623 8.41344 54.2768 7.82429C55.1914 7.23514 56.2102 6.94057 57.3333 6.94057C58.4725 6.94057 59.4994 7.21059 60.4139 7.75065C61.3285 8.27433 62.0505 9.01077 62.58 9.95995C63.1255 10.8928 63.3982 11.9729 63.3982 13.2003C63.3982 14.5095 63.1335 15.6796 62.604 16.7106C62.0746 17.7252 61.3525 18.5271 60.438 19.1163C59.5395 19.7054 58.5126 20 57.3574 20ZM57.5259 18.7726C58.296 18.7726 58.8977 18.5353 59.3309 18.0607C59.7802 17.5698 60.101 16.9561 60.2936 16.2196C60.4861 15.4668 60.5824 14.6895 60.5824 13.8876C60.5824 13.1839 60.5182 12.4966 60.3899 11.8256C60.2775 11.1382 60.093 10.5164 59.8363 9.95995C59.5796 9.40353 59.2427 8.96167 58.8255 8.63437C58.4083 8.2907 57.9029 8.12705 57.3093 8.14341C56.5391 8.14341 55.9134 8.38071 55.432 8.8553C54.9667 9.32989 54.6298 9.94358 54.4212 10.6964C54.2126 11.4328 54.1083 12.2183 54.1083 13.053C54.1083 14.0185 54.2287 14.935 54.4693 15.8023C54.71 16.6697 55.079 17.3816 55.5764 17.938C56.0899 18.4944 56.7397 18.7726 57.5259 18.7726Z" fill="#1F1E1C"/>
<path d="M65.3501 18.5762C65.8315 18.5762 66.1684 18.4617 66.3609 18.2326C66.5535 18.0034 66.6658 17.6843 66.6979 17.2752C66.746 16.8661 66.7701 16.3915 66.7701 15.8514V10.7455C66.7701 10.4836 66.7701 10.2054 66.7701 9.91085C66.7861 9.61628 66.8182 9.31352 66.8663 9.00258C66.5936 9.00258 66.3048 9.01077 65.9999 9.02713C65.6951 9.0435 65.4143 9.05986 65.1576 9.07623V7.77519H65.9759C66.6497 7.77519 67.1552 7.70155 67.4921 7.55426C67.8451 7.40698 68.1098 7.25151 68.2863 7.08785H69.1527C69.1848 7.31697 69.2089 7.63609 69.2249 8.04522C69.241 8.45435 69.257 8.91258 69.2731 9.4199C69.7223 8.74892 70.2839 8.16796 70.9577 7.677C71.6316 7.18605 72.3536 6.94057 73.1238 6.94057C73.6212 6.94057 74.0464 7.07967 74.3993 7.35788C74.7684 7.61972 74.9529 8.0534 74.9529 8.65891C74.9529 8.92076 74.8486 9.21533 74.64 9.54263C74.4314 9.86994 74.0785 10.0254 73.5811 10.009C73.2441 9.99268 72.9473 9.86176 72.6906 9.61628C72.4499 9.3708 72.3376 9.03531 72.3536 8.60982C71.9686 8.60982 71.5835 8.73256 71.1984 8.97804C70.8134 9.20715 70.4523 9.51809 70.1154 9.91085C69.7785 10.3036 69.5057 10.7291 69.2971 11.1873V16.5633C69.2971 16.8579 69.2891 17.1606 69.2731 17.4716C69.2731 17.7661 69.249 18.0689 69.2009 18.3798C69.4576 18.3635 69.7223 18.3553 69.9951 18.3553C70.2678 18.3389 70.5165 18.3226 70.7411 18.3062V19.6072H65.3501V18.5762Z" fill="#1F1E1C"/>
<path d="M76.1615 19.6072V18.5762C76.6429 18.5762 76.9798 18.4617 77.1723 18.2326C77.3649 18.0034 77.4772 17.6843 77.5093 17.2752C77.5574 16.8661 77.5815 16.3915 77.5815 15.8514V10.7455C77.5815 10.4836 77.5815 10.2054 77.5815 9.91085C77.5975 9.61628 77.6296 9.31352 77.6777 9.00258C77.405 9.00258 77.1162 9.01895 76.8113 9.05168C76.5065 9.06804 76.2257 9.07623 75.969 9.07623V7.77519C76.691 7.77519 77.2526 7.74246 77.6537 7.677C78.0708 7.61154 78.3837 7.52972 78.5923 7.43152C78.8169 7.31697 78.9854 7.20241 79.0977 7.08785H79.9641C79.9962 7.25151 80.0122 7.44789 80.0122 7.677C80.0283 7.88975 80.0443 8.11886 80.0604 8.36434C80.5578 7.93885 81.1193 7.59518 81.7451 7.33333C82.3869 7.07149 83.0046 6.94057 83.5982 6.94057C84.3844 6.94057 85.0342 7.08785 85.5477 7.38243C86.0772 7.66064 86.4943 8.06158 86.7992 8.58527C87.3607 8.11068 87.9945 7.71792 88.7005 7.40698C89.4064 7.09604 90.0964 6.94057 90.7702 6.94057C92.134 6.94057 93.1449 7.35788 93.8027 8.19251C94.4766 9.01077 94.7975 10.3854 94.7654 12.3165L94.7413 16.5633C94.7413 16.8579 94.7333 17.1606 94.7172 17.4716C94.7172 17.7661 94.6932 18.0689 94.645 18.3798C94.9018 18.3635 95.1665 18.3553 95.4393 18.3553C95.712 18.3389 95.9607 18.3226 96.1853 18.3062V19.6072H90.8906V18.5762C91.3398 18.5762 91.6527 18.4617 91.8292 18.2326C92.0217 18.0034 92.134 17.6843 92.1661 17.2752C92.2143 16.8661 92.2383 16.3915 92.2383 15.8514V12.3165C92.2223 11.0237 92.0137 10.0745 91.6126 9.46899C91.2115 8.86348 90.6018 8.56072 89.7835 8.56072C89.3182 8.56072 88.8529 8.6671 88.3876 8.87985C87.9383 9.07623 87.5452 9.32989 87.2083 9.64083C87.3688 10.1972 87.449 10.8519 87.449 11.6047C87.4329 12.4393 87.4249 13.2657 87.4249 14.084C87.4249 14.9022 87.4249 15.7287 87.4249 16.5633C87.4249 16.8579 87.4169 17.1606 87.4008 17.4716C87.3848 17.7661 87.3607 18.0689 87.3286 18.3798C87.5693 18.3635 87.826 18.3553 88.0988 18.3553C88.3715 18.3389 88.6202 18.3226 88.8449 18.3062V19.6072H83.502V18.5762C83.9673 18.5762 84.2962 18.4617 84.4887 18.2326C84.6813 18.0034 84.7936 17.6843 84.8257 17.2752C84.8738 16.8661 84.8979 16.3915 84.8979 15.8514V12.292C84.9139 10.9991 84.7294 10.05 84.3443 9.44444C83.9753 8.82257 83.3816 8.51981 82.5634 8.53618C82.0981 8.53618 81.6488 8.64255 81.2156 8.8553C80.7824 9.05168 80.4053 9.30534 80.0844 9.61628C80.0844 9.81266 80.0844 10.0172 80.0844 10.23C80.1005 10.4427 80.1085 10.6718 80.1085 10.9173V16.5633C80.1085 16.8579 80.1005 17.1606 80.0844 17.4716C80.0684 17.7661 80.0443 18.0689 80.0122 18.3798C80.2529 18.3635 80.5016 18.3553 80.7583 18.3553C81.0311 18.3389 81.2798 18.3226 81.5044 18.3062V19.6072H76.1615Z" fill="#1F1E1C"/>
<path d="M105.002 19.6072C104.97 19.3454 104.945 19.1163 104.929 18.9199C104.913 18.7235 104.889 18.5189 104.857 18.3062C103.75 19.4354 102.515 20 101.151 20C99.9956 20 99.1212 19.7136 98.5275 19.1408C97.9499 18.5517 97.6611 17.8234 97.6611 16.9561C97.6611 16.2033 97.8777 15.5487 98.3109 14.9922C98.7442 14.4358 99.3137 13.9858 100.02 13.6421C100.726 13.2821 101.496 13.0202 102.33 12.8566C103.164 12.6766 103.983 12.5866 104.785 12.5866V11.1382C104.785 10.6146 104.737 10.1318 104.641 9.68992C104.544 9.2317 104.344 8.86348 104.039 8.58527C103.734 8.2907 103.277 8.14341 102.667 8.14341C102.25 8.12705 101.833 8.20887 101.416 8.38889C100.998 8.55254 100.678 8.83075 100.453 9.22351C100.581 9.35444 100.661 9.50991 100.694 9.68992C100.742 9.85357 100.766 10.009 100.766 10.1563C100.766 10.3854 100.67 10.6473 100.477 10.9419C100.284 11.2201 99.9555 11.351 99.4902 11.3346C99.1052 11.3346 98.8083 11.2037 98.5997 10.9419C98.4072 10.6637 98.3109 10.3445 98.3109 9.9845C98.3109 9.39535 98.5195 8.87166 98.9367 8.41344C99.3699 7.95521 99.9475 7.59518 100.67 7.33333C101.408 7.07149 102.242 6.94057 103.172 6.94057C104.552 6.94057 105.579 7.30879 106.253 8.04522C106.943 8.78165 107.288 9.94358 107.288 11.531C107.288 12.4311 107.28 13.2739 107.264 14.0594C107.264 14.8286 107.264 15.6632 107.264 16.5633C107.264 16.8088 107.256 17.087 107.24 17.3979C107.224 17.7089 107.2 18.0362 107.168 18.3798C107.44 18.3635 107.721 18.3471 108.01 18.3307C108.299 18.3144 108.572 18.3062 108.828 18.3062V19.6072H105.002ZM104.785 13.7158C104.095 13.7485 103.397 13.8712 102.691 14.084C102.001 14.2804 101.424 14.5913 100.958 15.0168C100.509 15.4259 100.292 15.966 100.309 16.637C100.341 17.1934 100.525 17.6025 100.862 17.8643C101.199 18.1262 101.584 18.2571 102.017 18.2571C102.579 18.2571 103.076 18.1507 103.509 17.938C103.943 17.7089 104.368 17.3979 104.785 17.0052C104.769 16.8252 104.761 16.6451 104.761 16.4651C104.761 16.2687 104.761 16.0642 104.761 15.8514C104.761 15.7041 104.761 15.4341 104.761 15.0413C104.777 14.6486 104.785 14.2067 104.785 13.7158Z" fill="#1F1E1C"/>
<path d="M110.382 19.6072V18.5762C110.863 18.5762 111.2 18.4617 111.393 18.2326C111.585 18.0034 111.698 17.6843 111.73 17.2752C111.778 16.8661 111.802 16.3915 111.802 15.8514L111.826 10.7455C111.826 10.4836 111.826 10.2054 111.826 9.91085C111.842 9.61628 111.874 9.31352 111.922 9.00258C111.633 9.00258 111.337 9.01895 111.032 9.05168C110.727 9.06804 110.454 9.07623 110.213 9.07623V7.77519C110.935 7.77519 111.497 7.74246 111.898 7.677C112.315 7.61154 112.628 7.52972 112.837 7.43152C113.061 7.31697 113.23 7.20241 113.342 7.08785H114.209C114.241 7.31697 114.257 7.52972 114.257 7.7261C114.257 7.90612 114.273 8.15978 114.305 8.48708C114.818 8.06158 115.42 7.70155 116.11 7.40698C116.8 7.09604 117.458 6.94057 118.083 6.94057C119.511 6.94057 120.538 7.38243 121.164 8.26615C121.806 9.14987 122.127 10.5327 122.127 12.4147V16.5633C122.127 16.8579 122.119 17.1606 122.103 17.4716C122.087 17.7661 122.062 18.0689 122.03 18.3798C122.287 18.3635 122.544 18.3553 122.801 18.3553C123.073 18.3389 123.322 18.3226 123.547 18.3062V19.6072H118.18V18.5762C118.661 18.5762 118.998 18.4617 119.19 18.2326C119.383 18.0034 119.495 17.6843 119.527 17.2752C119.576 16.8661 119.6 16.3915 119.6 15.8514V12.4147C119.584 11.1219 119.383 10.1481 118.998 9.49354C118.613 8.83893 117.979 8.51981 117.097 8.53618C116.583 8.53618 116.07 8.6671 115.556 8.92894C115.059 9.19078 114.65 9.5099 114.329 9.8863C114.329 10.0663 114.329 10.2545 114.329 10.4509C114.329 10.6309 114.329 10.8109 114.329 10.991V16.5633C114.329 16.8579 114.321 17.1606 114.305 17.4716C114.289 17.7661 114.265 18.0689 114.233 18.3798C114.473 18.3635 114.73 18.3553 115.003 18.3553C115.276 18.3389 115.524 18.3226 115.749 18.3062V19.6072H110.382Z" fill="#1F1E1C"/>
<path d="M131.036 20C129.961 20 128.974 19.7545 128.076 19.2636C127.177 18.7562 126.455 18.0362 125.91 17.1034C125.38 16.1705 125.115 15.0413 125.115 13.7158C125.115 12.832 125.26 11.9892 125.549 11.1873C125.854 10.3691 126.287 9.64083 126.848 9.00258C127.41 8.36434 128.068 7.8652 128.822 7.50517C129.592 7.12877 130.442 6.94057 131.373 6.94057C132.32 6.94057 133.122 7.08785 133.78 7.38243C134.454 7.677 134.975 8.06158 135.344 8.53618C135.713 9.01077 135.898 9.52627 135.898 10.0827C135.898 10.4755 135.785 10.8191 135.561 11.1137C135.336 11.4083 135.015 11.5556 134.598 11.5556C134.117 11.5719 133.78 11.4328 133.587 11.1382C133.411 10.8273 133.322 10.5409 133.322 10.2791C133.322 10.1318 133.346 9.96813 133.395 9.78811C133.443 9.6081 133.531 9.43626 133.659 9.27261C133.531 8.92894 133.322 8.67528 133.034 8.51163C132.745 8.34798 132.448 8.2416 132.143 8.19251C131.838 8.14341 131.582 8.11886 131.373 8.11886C130.394 8.13523 129.568 8.56891 128.894 9.4199C128.236 10.2545 127.907 11.4655 127.907 13.053C127.907 14.0676 128.052 14.9759 128.34 15.7778C128.645 16.5797 129.079 17.2179 129.64 17.6925C130.218 18.1671 130.916 18.4126 131.734 18.4289C132.456 18.4289 133.154 18.2407 133.828 17.8643C134.502 17.4716 135.047 16.9806 135.464 16.3915L136.234 17.0788C135.529 18.1589 134.694 18.9199 133.731 19.3618C132.785 19.7873 131.886 20 131.036 20Z" fill="#1F1E1C"/>
<path d="M143.633 20C142.51 20 141.499 19.7382 140.601 19.2145C139.718 18.6744 139.02 17.9216 138.507 16.9561C137.993 15.9742 137.737 14.8204 137.737 13.4948C137.737 12.3493 137.985 11.2773 138.483 10.2791C138.996 9.28079 139.702 8.4789 140.601 7.87339C141.515 7.25151 142.582 6.94057 143.802 6.94057C144.684 6.94057 145.51 7.13695 146.28 7.52972C147.051 7.90612 147.668 8.51163 148.134 9.34625C148.615 10.1645 148.856 11.2446 148.856 12.5866L140.577 12.7338C140.577 13.863 140.697 14.8613 140.938 15.7287C141.194 16.5797 141.603 17.2425 142.165 17.7171C142.727 18.1916 143.457 18.4289 144.355 18.4289C145.013 18.4289 145.711 18.2571 146.449 17.9134C147.187 17.5534 147.789 17.0706 148.254 16.4651L149 17.1279C148.503 17.8643 147.941 18.4453 147.315 18.8708C146.706 19.2799 146.072 19.5663 145.414 19.73C144.772 19.91 144.179 20 143.633 20ZM140.673 11.4574H146.232C146.232 10.5409 146.04 9.76357 145.655 9.12532C145.27 8.47072 144.668 8.14341 143.85 8.14341C142.983 8.14341 142.277 8.42162 141.732 8.97804C141.202 9.51809 140.849 10.3445 140.673 11.4574Z" fill="#1F1E1C"/>
<path d="M5 18.5271C5.52948 18.5108 5.90653 18.4044 6.13115 18.208C6.37182 17.9953 6.52425 17.6925 6.58843 17.2997C6.65261 16.907 6.6847 16.4078 6.6847 15.8023V5.59044C6.6847 4.83764 6.70876 4.1994 6.7569 3.67571C6.48414 3.69208 6.18731 3.70844 5.86642 3.72481C5.54552 3.74117 5.25672 3.75754 5 3.7739V2.42377C6.89328 2.40741 8.85074 2.39104 10.8724 2.37468C13.1186 2.37468 14.8595 2.79199 16.0949 3.62661C17.3464 4.44488 17.9882 5.705 18.0203 7.40698C18.0363 8.04522 17.924 8.70801 17.6834 9.39535C17.4427 10.0663 17.0335 10.6964 16.4559 11.2855C15.8783 11.8583 15.0921 12.3247 14.0974 12.6848C13.1026 13.0448 11.8671 13.2248 10.391 13.2248C10.2306 13.2412 10.0461 13.2494 9.83749 13.2494C9.64495 13.233 9.44439 13.2248 9.23581 13.2248V16.3178C9.23581 17.2015 9.21174 17.8807 9.16361 18.3553C9.50055 18.3226 9.86958 18.298 10.2707 18.2817C10.6718 18.2653 11.0248 18.2489 11.3296 18.2326V19.6072H5V18.5271ZM9.23581 11.9238C9.49252 11.9565 9.72517 11.9811 9.93375 11.9974C10.1423 11.9974 10.383 11.9974 10.6558 11.9974C12.0035 11.9974 13.1026 11.621 13.953 10.8682C14.8033 10.0991 15.2285 9.02713 15.2285 7.65245C15.2285 6.58872 15.0199 5.76227 14.6028 5.17313C14.2017 4.58398 13.6642 4.17485 12.9903 3.94574C12.3324 3.70026 11.6104 3.57752 10.8242 3.57752C10.0862 3.57752 9.63693 3.79845 9.47648 4.24031C9.31603 4.6658 9.23581 5.31223 9.23581 6.17959V11.9238Z" stroke="black" stroke-width="2" mask="url(#path-1-outside-1_58_29)"/>
<path d="M25.1073 20C23.9842 20 22.9734 19.7382 22.0749 19.2145C21.1924 18.6744 20.4944 17.9216 19.981 16.9561C19.4676 15.9742 19.2109 14.8204 19.2109 13.4948C19.2109 12.3493 19.4596 11.2773 19.9569 10.2791C20.4704 9.28079 21.1763 8.4789 22.0749 7.87339C22.9894 7.25151 24.0564 6.94057 25.2758 6.94057C26.1582 6.94057 26.9845 7.13695 27.7547 7.52972C28.5248 7.90612 29.1426 8.51163 29.6079 9.34625C30.0892 10.1645 30.3299 11.2446 30.3299 12.5866L22.0508 12.7338C22.0508 13.863 22.1711 14.8613 22.4118 15.7287C22.6685 16.5797 23.0776 17.2425 23.6392 17.7171C24.2008 18.1916 24.9308 18.4289 25.8293 18.4289C26.4872 18.4289 27.1851 18.2571 27.9232 17.9134C28.6612 17.5534 29.2629 17.0706 29.7282 16.4651L30.4743 17.1279C29.9769 17.8643 29.4153 18.4453 28.7896 18.8708C28.1799 19.2799 27.5461 19.5663 26.8883 19.73C26.2465 19.91 25.6528 20 25.1073 20ZM22.1471 11.4574H27.7066C27.7066 10.5409 27.514 9.76357 27.1289 9.12532C26.7439 8.47072 26.1422 8.14341 25.3239 8.14341C24.4575 8.14341 23.7515 8.42162 23.206 8.97804C22.6765 9.51809 22.3235 10.3445 22.1471 11.4574Z" stroke="black" stroke-width="2" mask="url(#path-1-outside-1_58_29)"/>
<path d="M32.3519 18.5762C32.8332 18.5762 33.1702 18.4617 33.3627 18.2326C33.5552 18.0034 33.6675 17.6843 33.6996 17.2752C33.7478 16.8661 33.7718 16.3915 33.7718 15.8514V10.7455C33.7718 10.4836 33.7718 10.2054 33.7718 9.91085C33.7879 9.61628 33.82 9.31352 33.8681 9.00258C33.5953 9.00258 33.3065 9.01077 33.0017 9.02713C32.6968 9.0435 32.4161 9.05986 32.1593 9.07623V7.77519H32.9776C33.6515 7.77519 34.1569 7.70155 34.4938 7.55426C34.8468 7.40698 35.1116 7.25151 35.2881 7.08785H36.1545C36.1866 7.31697 36.2106 7.63609 36.2267 8.04522C36.2427 8.45435 36.2588 8.91258 36.2748 9.4199C36.7241 8.74892 37.2856 8.16796 37.9595 7.677C38.6334 7.18605 39.3554 6.94057 40.1255 6.94057C40.6229 6.94057 41.0481 7.07967 41.4011 7.35788C41.7701 7.61972 41.9546 8.0534 41.9546 8.65891C41.9546 8.92076 41.8504 9.21533 41.6418 9.54263C41.4332 9.86994 41.0802 10.0254 40.5828 10.009C40.2459 9.99268 39.9491 9.86176 39.6923 9.61628C39.4517 9.3708 39.3394 9.03531 39.3554 8.60982C38.9703 8.60982 38.5853 8.73256 38.2002 8.97804C37.8151 9.20715 37.4541 9.51809 37.1172 9.91085C36.7802 10.3036 36.5075 10.7291 36.2989 11.1873V16.5633C36.2989 16.8579 36.2909 17.1606 36.2748 17.4716C36.2748 17.7661 36.2507 18.0689 36.2026 18.3798C36.4593 18.3635 36.7241 18.3553 36.9968 18.3553C37.2696 18.3389 37.5183 18.3226 37.7429 18.3062V19.6072H32.3519V18.5762Z" stroke="black" stroke-width="2" mask="url(#path-1-outside-1_58_29)"/>
<path d="M44.6795 6.74419C44.6795 4.87855 45.0325 3.45478 45.7384 2.47287C46.4605 1.49096 47.5916 1 49.1319 1C49.8539 1 50.4877 1.17183 51.0332 1.5155C51.5948 1.85917 51.8756 2.32558 51.8756 2.91473C51.8756 3.27476 51.7713 3.57752 51.5627 3.823C51.3701 4.06848 51.0894 4.1994 50.7203 4.21576C50.3032 4.21576 49.9983 4.09302 49.8058 3.84755C49.6293 3.5857 49.541 3.32386 49.541 3.06202C49.541 2.98019 49.541 2.89018 49.541 2.79199C49.5571 2.6938 49.5892 2.59561 49.6373 2.49742C49.525 2.36649 49.3806 2.27649 49.2041 2.22739C49.0437 2.17829 48.8912 2.15375 48.7468 2.15375C48.3297 2.15375 48.0088 2.27649 47.7841 2.52196C47.5595 2.76744 47.3991 3.07838 47.3028 3.45478C47.2065 3.83118 47.1584 4.21576 47.1584 4.60853V7.33333H50.239V8.60982L47.1825 8.68346L47.2065 16.5388C47.2065 16.8333 47.1985 17.1361 47.1825 17.447C47.1664 17.758 47.1424 18.0689 47.1103 18.3798C47.367 18.3635 47.6317 18.3553 47.9045 18.3553C48.1933 18.3389 48.45 18.3226 48.6746 18.3062V19.6072H43.2595V18.5762C43.7409 18.5762 44.0778 18.4617 44.2704 18.2326C44.4629 18.0034 44.5752 17.6843 44.6073 17.2752C44.6554 16.8661 44.6795 16.3915 44.6795 15.8514V8.70801L42.7782 8.75711V7.33333H44.6795V6.74419Z" stroke="black" stroke-width="2" mask="url(#path-1-outside-1_58_29)"/>
<path d="M57.3574 20C56.2182 20 55.1914 19.7382 54.2768 19.2145C53.3623 18.6908 52.6322 17.9625 52.0867 17.0297C51.5572 16.0805 51.2925 14.9922 51.2925 13.7649C51.2925 12.4393 51.5572 11.2692 52.0867 10.2545C52.6322 9.22351 53.3623 8.41344 54.2768 7.82429C55.1914 7.23514 56.2102 6.94057 57.3333 6.94057C58.4725 6.94057 59.4994 7.21059 60.4139 7.75065C61.3285 8.27433 62.0505 9.01077 62.58 9.95995C63.1255 10.8928 63.3982 11.9729 63.3982 13.2003C63.3982 14.5095 63.1335 15.6796 62.604 16.7106C62.0746 17.7252 61.3525 18.5271 60.438 19.1163C59.5395 19.7054 58.5126 20 57.3574 20ZM57.5259 18.7726C58.296 18.7726 58.8977 18.5353 59.3309 18.0607C59.7802 17.5698 60.101 16.9561 60.2936 16.2196C60.4861 15.4668 60.5824 14.6895 60.5824 13.8876C60.5824 13.1839 60.5182 12.4966 60.3899 11.8256C60.2775 11.1382 60.093 10.5164 59.8363 9.95995C59.5796 9.40353 59.2427 8.96167 58.8255 8.63437C58.4083 8.2907 57.9029 8.12705 57.3093 8.14341C56.5391 8.14341 55.9134 8.38071 55.432 8.8553C54.9667 9.32989 54.6298 9.94358 54.4212 10.6964C54.2126 11.4328 54.1083 12.2183 54.1083 13.053C54.1083 14.0185 54.2287 14.935 54.4693 15.8023C54.71 16.6697 55.079 17.3816 55.5764 17.938C56.0899 18.4944 56.7397 18.7726 57.5259 18.7726Z" stroke="black" stroke-width="2" mask="url(#path-1-outside-1_58_29)"/>
<path d="M65.3501 18.5762C65.8315 18.5762 66.1684 18.4617 66.3609 18.2326C66.5535 18.0034 66.6658 17.6843 66.6979 17.2752C66.746 16.8661 66.7701 16.3915 66.7701 15.8514V10.7455C66.7701 10.4836 66.7701 10.2054 66.7701 9.91085C66.7861 9.61628 66.8182 9.31352 66.8663 9.00258C66.5936 9.00258 66.3048 9.01077 65.9999 9.02713C65.6951 9.0435 65.4143 9.05986 65.1576 9.07623V7.77519H65.9759C66.6497 7.77519 67.1552 7.70155 67.4921 7.55426C67.8451 7.40698 68.1098 7.25151 68.2863 7.08785H69.1527C69.1848 7.31697 69.2089 7.63609 69.2249 8.04522C69.241 8.45435 69.257 8.91258 69.2731 9.4199C69.7223 8.74892 70.2839 8.16796 70.9577 7.677C71.6316 7.18605 72.3536 6.94057 73.1238 6.94057C73.6212 6.94057 74.0464 7.07967 74.3993 7.35788C74.7684 7.61972 74.9529 8.0534 74.9529 8.65891C74.9529 8.92076 74.8486 9.21533 74.64 9.54263C74.4314 9.86994 74.0785 10.0254 73.5811 10.009C73.2441 9.99268 72.9473 9.86176 72.6906 9.61628C72.4499 9.3708 72.3376 9.03531 72.3536 8.60982C71.9686 8.60982 71.5835 8.73256 71.1984 8.97804C70.8134 9.20715 70.4523 9.51809 70.1154 9.91085C69.7785 10.3036 69.5057 10.7291 69.2971 11.1873V16.5633C69.2971 16.8579 69.2891 17.1606 69.2731 17.4716C69.2731 17.7661 69.249 18.0689 69.2009 18.3798C69.4576 18.3635 69.7223 18.3553 69.9951 18.3553C70.2678 18.3389 70.5165 18.3226 70.7411 18.3062V19.6072H65.3501V18.5762Z" stroke="black" stroke-width="2" mask="url(#path-1-outside-1_58_29)"/>
<path d="M76.1615 19.6072V18.5762C76.6429 18.5762 76.9798 18.4617 77.1723 18.2326C77.3649 18.0034 77.4772 17.6843 77.5093 17.2752C77.5574 16.8661 77.5815 16.3915 77.5815 15.8514V10.7455C77.5815 10.4836 77.5815 10.2054 77.5815 9.91085C77.5975 9.61628 77.6296 9.31352 77.6777 9.00258C77.405 9.00258 77.1162 9.01895 76.8113 9.05168C76.5065 9.06804 76.2257 9.07623 75.969 9.07623V7.77519C76.691 7.77519 77.2526 7.74246 77.6537 7.677C78.0708 7.61154 78.3837 7.52972 78.5923 7.43152C78.8169 7.31697 78.9854 7.20241 79.0977 7.08785H79.9641C79.9962 7.25151 80.0122 7.44789 80.0122 7.677C80.0283 7.88975 80.0443 8.11886 80.0604 8.36434C80.5578 7.93885 81.1193 7.59518 81.7451 7.33333C82.3869 7.07149 83.0046 6.94057 83.5982 6.94057C84.3844 6.94057 85.0342 7.08785 85.5477 7.38243C86.0772 7.66064 86.4943 8.06158 86.7992 8.58527C87.3607 8.11068 87.9945 7.71792 88.7005 7.40698C89.4064 7.09604 90.0964 6.94057 90.7702 6.94057C92.134 6.94057 93.1449 7.35788 93.8027 8.19251C94.4766 9.01077 94.7975 10.3854 94.7654 12.3165L94.7413 16.5633C94.7413 16.8579 94.7333 17.1606 94.7172 17.4716C94.7172 17.7661 94.6932 18.0689 94.645 18.3798C94.9018 18.3635 95.1665 18.3553 95.4393 18.3553C95.712 18.3389 95.9607 18.3226 96.1853 18.3062V19.6072H90.8906V18.5762C91.3398 18.5762 91.6527 18.4617 91.8292 18.2326C92.0217 18.0034 92.134 17.6843 92.1661 17.2752C92.2143 16.8661 92.2383 16.3915 92.2383 15.8514V12.3165C92.2223 11.0237 92.0137 10.0745 91.6126 9.46899C91.2115 8.86348 90.6018 8.56072 89.7835 8.56072C89.3182 8.56072 88.8529 8.6671 88.3876 8.87985C87.9383 9.07623 87.5452 9.32989 87.2083 9.64083C87.3688 10.1972 87.449 10.8519 87.449 11.6047C87.4329 12.4393 87.4249 13.2657 87.4249 14.084C87.4249 14.9022 87.4249 15.7287 87.4249 16.5633C87.4249 16.8579 87.4169 17.1606 87.4008 17.4716C87.3848 17.7661 87.3607 18.0689 87.3286 18.3798C87.5693 18.3635 87.826 18.3553 88.0988 18.3553C88.3715 18.3389 88.6202 18.3226 88.8449 18.3062V19.6072H83.502V18.5762C83.9673 18.5762 84.2962 18.4617 84.4887 18.2326C84.6813 18.0034 84.7936 17.6843 84.8257 17.2752C84.8738 16.8661 84.8979 16.3915 84.8979 15.8514V12.292C84.9139 10.9991 84.7294 10.05 84.3443 9.44444C83.9753 8.82257 83.3816 8.51981 82.5634 8.53618C82.0981 8.53618 81.6488 8.64255 81.2156 8.8553C80.7824 9.05168 80.4053 9.30534 80.0844 9.61628C80.0844 9.81266 80.0844 10.0172 80.0844 10.23C80.1005 10.4427 80.1085 10.6718 80.1085 10.9173V16.5633C80.1085 16.8579 80.1005 17.1606 80.0844 17.4716C80.0684 17.7661 80.0443 18.0689 80.0122 18.3798C80.2529 18.3635 80.5016 18.3553 80.7583 18.3553C81.0311 18.3389 81.2798 18.3226 81.5044 18.3062V19.6072H76.1615Z" stroke="black" stroke-width="2" mask="url(#path-1-outside-1_58_29)"/>
<path d="M105.002 19.6072C104.97 19.3454 104.945 19.1163 104.929 18.9199C104.913 18.7235 104.889 18.5189 104.857 18.3062C103.75 19.4354 102.515 20 101.151 20C99.9956 20 99.1212 19.7136 98.5275 19.1408C97.9499 18.5517 97.6611 17.8234 97.6611 16.9561C97.6611 16.2033 97.8777 15.5487 98.3109 14.9922C98.7442 14.4358 99.3137 13.9858 100.02 13.6421C100.726 13.2821 101.496 13.0202 102.33 12.8566C103.164 12.6766 103.983 12.5866 104.785 12.5866V11.1382C104.785 10.6146 104.737 10.1318 104.641 9.68992C104.544 9.2317 104.344 8.86348 104.039 8.58527C103.734 8.2907 103.277 8.14341 102.667 8.14341C102.25 8.12705 101.833 8.20887 101.416 8.38889C100.998 8.55254 100.678 8.83075 100.453 9.22351C100.581 9.35444 100.661 9.50991 100.694 9.68992C100.742 9.85357 100.766 10.009 100.766 10.1563C100.766 10.3854 100.67 10.6473 100.477 10.9419C100.284 11.2201 99.9555 11.351 99.4902 11.3346C99.1052 11.3346 98.8083 11.2037 98.5997 10.9419C98.4072 10.6637 98.3109 10.3445 98.3109 9.9845C98.3109 9.39535 98.5195 8.87166 98.9367 8.41344C99.3699 7.95521 99.9475 7.59518 100.67 7.33333C101.408 7.07149 102.242 6.94057 103.172 6.94057C104.552 6.94057 105.579 7.30879 106.253 8.04522C106.943 8.78165 107.288 9.94358 107.288 11.531C107.288 12.4311 107.28 13.2739 107.264 14.0594C107.264 14.8286 107.264 15.6632 107.264 16.5633C107.264 16.8088 107.256 17.087 107.24 17.3979C107.224 17.7089 107.2 18.0362 107.168 18.3798C107.44 18.3635 107.721 18.3471 108.01 18.3307C108.299 18.3144 108.572 18.3062 108.828 18.3062V19.6072H105.002ZM104.785 13.7158C104.095 13.7485 103.397 13.8712 102.691 14.084C102.001 14.2804 101.424 14.5913 100.958 15.0168C100.509 15.4259 100.292 15.966 100.309 16.637C100.341 17.1934 100.525 17.6025 100.862 17.8643C101.199 18.1262 101.584 18.2571 102.017 18.2571C102.579 18.2571 103.076 18.1507 103.509 17.938C103.943 17.7089 104.368 17.3979 104.785 17.0052C104.769 16.8252 104.761 16.6451 104.761 16.4651C104.761 16.2687 104.761 16.0642 104.761 15.8514C104.761 15.7041 104.761 15.4341 104.761 15.0413C104.777 14.6486 104.785 14.2067 104.785 13.7158Z" stroke="black" stroke-width="2" mask="url(#path-1-outside-1_58_29)"/>
<path d="M110.382 19.6072V18.5762C110.863 18.5762 111.2 18.4617 111.393 18.2326C111.585 18.0034 111.698 17.6843 111.73 17.2752C111.778 16.8661 111.802 16.3915 111.802 15.8514L111.826 10.7455C111.826 10.4836 111.826 10.2054 111.826 9.91085C111.842 9.61628 111.874 9.31352 111.922 9.00258C111.633 9.00258 111.337 9.01895 111.032 9.05168C110.727 9.06804 110.454 9.07623 110.213 9.07623V7.77519C110.935 7.77519 111.497 7.74246 111.898 7.677C112.315 7.61154 112.628 7.52972 112.837 7.43152C113.061 7.31697 113.23 7.20241 113.342 7.08785H114.209C114.241 7.31697 114.257 7.52972 114.257 7.7261C114.257 7.90612 114.273 8.15978 114.305 8.48708C114.818 8.06158 115.42 7.70155 116.11 7.40698C116.8 7.09604 117.458 6.94057 118.083 6.94057C119.511 6.94057 120.538 7.38243 121.164 8.26615C121.806 9.14987 122.127 10.5327 122.127 12.4147V16.5633C122.127 16.8579 122.119 17.1606 122.103 17.4716C122.087 17.7661 122.062 18.0689 122.03 18.3798C122.287 18.3635 122.544 18.3553 122.801 18.3553C123.073 18.3389 123.322 18.3226 123.547 18.3062V19.6072H118.18V18.5762C118.661 18.5762 118.998 18.4617 119.19 18.2326C119.383 18.0034 119.495 17.6843 119.527 17.2752C119.576 16.8661 119.6 16.3915 119.6 15.8514V12.4147C119.584 11.1219 119.383 10.1481 118.998 9.49354C118.613 8.83893 117.979 8.51981 117.097 8.53618C116.583 8.53618 116.07 8.6671 115.556 8.92894C115.059 9.19078 114.65 9.5099 114.329 9.8863C114.329 10.0663 114.329 10.2545 114.329 10.4509C114.329 10.6309 114.329 10.8109 114.329 10.991V16.5633C114.329 16.8579 114.321 17.1606 114.305 17.4716C114.289 17.7661 114.265 18.0689 114.233 18.3798C114.473 18.3635 114.73 18.3553 115.003 18.3553C115.276 18.3389 115.524 18.3226 115.749 18.3062V19.6072H110.382Z" stroke="black" stroke-width="2" mask="url(#path-1-outside-1_58_29)"/>
<path d="M131.036 20C129.961 20 128.974 19.7545 128.076 19.2636C127.177 18.7562 126.455 18.0362 125.91 17.1034C125.38 16.1705 125.115 15.0413 125.115 13.7158C125.115 12.832 125.26 11.9892 125.549 11.1873C125.854 10.3691 126.287 9.64083 126.848 9.00258C127.41 8.36434 128.068 7.8652 128.822 7.50517C129.592 7.12877 130.442 6.94057 131.373 6.94057C132.32 6.94057 133.122 7.08785 133.78 7.38243C134.454 7.677 134.975 8.06158 135.344 8.53618C135.713 9.01077 135.898 9.52627 135.898 10.0827C135.898 10.4755 135.785 10.8191 135.561 11.1137C135.336 11.4083 135.015 11.5556 134.598 11.5556C134.117 11.5719 133.78 11.4328 133.587 11.1382C133.411 10.8273 133.322 10.5409 133.322 10.2791C133.322 10.1318 133.346 9.96813 133.395 9.78811C133.443 9.6081 133.531 9.43626 133.659 9.27261C133.531 8.92894 133.322 8.67528 133.034 8.51163C132.745 8.34798 132.448 8.2416 132.143 8.19251C131.838 8.14341 131.582 8.11886 131.373 8.11886C130.394 8.13523 129.568 8.56891 128.894 9.4199C128.236 10.2545 127.907 11.4655 127.907 13.053C127.907 14.0676 128.052 14.9759 128.34 15.7778C128.645 16.5797 129.079 17.2179 129.64 17.6925C130.218 18.1671 130.916 18.4126 131.734 18.4289C132.456 18.4289 133.154 18.2407 133.828 17.8643C134.502 17.4716 135.047 16.9806 135.464 16.3915L136.234 17.0788C135.529 18.1589 134.694 18.9199 133.731 19.3618C132.785 19.7873 131.886 20 131.036 20Z" stroke="black" stroke-width="2" mask="url(#path-1-outside-1_58_29)"/>
<path d="M143.633 20C142.51 20 141.499 19.7382 140.601 19.2145C139.718 18.6744 139.02 17.9216 138.507 16.9561C137.993 15.9742 137.737 14.8204 137.737 13.4948C137.737 12.3493 137.985 11.2773 138.483 10.2791C138.996 9.28079 139.702 8.4789 140.601 7.87339C141.515 7.25151 142.582 6.94057 143.802 6.94057C144.684 6.94057 145.51 7.13695 146.28 7.52972C147.051 7.90612 147.668 8.51163 148.134 9.34625C148.615 10.1645 148.856 11.2446 148.856 12.5866L140.577 12.7338C140.577 13.863 140.697 14.8613 140.938 15.7287C141.194 16.5797 141.603 17.2425 142.165 17.7171C142.727 18.1916 143.457 18.4289 144.355 18.4289C145.013 18.4289 145.711 18.2571 146.449 17.9134C147.187 17.5534 147.789 17.0706 148.254 16.4651L149 17.1279C148.503 17.8643 147.941 18.4453 147.315 18.8708C146.706 19.2799 146.072 19.5663 145.414 19.73C144.772 19.91 144.179 20 143.633 20ZM140.673 11.4574H146.232C146.232 10.5409 146.04 9.76357 145.655 9.12532C145.27 8.47072 144.668 8.14341 143.85 8.14341C142.983 8.14341 142.277 8.42162 141.732 8.97804C141.202 9.51809 140.849 10.3445 140.673 11.4574Z" stroke="black" stroke-width="2" mask="url(#path-1-outside-1_58_29)"/>
</g>
<defs>
<filter id="filter0_d_58_29" x="0" y="0" width="154.319" height="29" filterUnits="userSpaceOnUse" color-interpolation-filters="sRGB">
<feFlood flood-opacity="0" result="BackgroundImageFix"/>
<feColorMatrix in="SourceAlpha" type="matrix" values="0 0 0 0 0 0 0 0 0 0 0 0 0 0 0 0 0 0 127 0" result="hardAlpha"/>
<feOffset dy="4"/>
<feGaussianBlur stdDeviation="2"/>
<feComposite in2="hardAlpha" operator="out"/>
<feColorMatrix type="matrix" values="0 0 0 0 0 0 0 0 0 0 0 0 0 0 0 0 0 0 0.25 0"/>
<feBlend mode="normal" in2="BackgroundImageFix" result="effect1_dropShadow_58_29"/>
<feBlend mode="normal" in="SourceGraphic" in2="effect1_dropShadow_58_29" result="shape"/>
</filter>
</defs>
</svg>
